<svg width="101" height="100" viewBox="0 0 101 100" fill="none" xmlns="http://www.w3.org/2000/svg">
<g id="Find-The-Way-1--Streamline-Milano.svg">
<path id="Vector" fill-rule="evenodd" clip-rule="evenodd" d="M90.8581 4.1402C90.7997 4.3076 90.6622 4.99182 90.5527 5.66095C90.3448 6.9301 90.338 6.93424 88.9891 6.61354C88.0157 6.38214 88.1271 7.03254 89.1632 7.62964L90.0008 8.11239L89.1775 8.55985C87.7332 9.34432 87.9149 10.0061 89.4165 9.43045L90.056 9.18519L89.975 10.5169C89.8628 12.3547 90.3009 12.3199 90.7218 10.4575C90.9988 9.23166 91.1425 8.96011 91.4455 9.0898C92.7918 9.66647 93.317 9.39371 92.4261 8.58029C91.9475 8.14353 91.9514 8.13405 92.8389 7.52575C93.8214 6.85248 93.578 6.55782 92.3856 6.9773C91.2783 7.36662 91.275 7.36224 91.508 5.86241C91.626 5.10326 91.6672 4.3368 91.5997 4.15918C91.4445 3.75089 90.9978 3.73945 90.8581 4.1402ZM29.4653 8.73285V9.97987L28.7442 9.83436C27.7602 9.63581 27.1909 9.86551 27.5588 10.3125C27.711 10.4977 28.0396 10.649 28.2885 10.649C28.8468 10.649 28.86 10.8437 28.3409 11.422C27.7641 12.0651 28.1518 12.2778 28.9903 11.7782L29.7065 11.3515L29.7099 12.1559C29.7116 12.5985 29.7786 13.207 29.8585 13.508C30.1219 14.4988 30.4302 14.0796 30.4302 12.7311V11.4069L32.4807 11.2281L31.6967 10.8853C30.7727 10.4811 30.7602 10.4234 31.4127 9.58691C31.9726 8.86887 31.7753 8.75305 30.9665 9.32461C30.4483 9.69056 30.4302 9.67888 30.4302 8.97934C30.4302 8.01068 30.2092 7.48584 29.8013 7.48584C29.5579 7.48584 29.4653 7.82917 29.4653 8.73285ZM67.266 10.3448C66.9574 10.8468 66.296 12.0026 65.7961 12.9133C65.2963 13.8243 64.8148 14.5355 64.7258 14.4942C64.637 14.4526 63.6417 13.965 62.5139 13.4104C61.3862 12.8557 59.8664 12.2564 59.1367 12.0783C57.2889 11.6276 53.5701 11.6933 51.6585 12.2106C45.7633 13.8061 41.0678 18.5975 39.6927 24.4209C39.1693 26.6383 39.1784 30.489 39.712 32.5436C40.1697 34.3053 41.2477 36.6336 42.1719 37.856C42.5072 38.2996 42.7436 38.6945 42.697 38.7337C42.6505 38.7726 41.1469 38.9342 39.3557 39.0926C28.9507 40.0133 15.2179 41.7438 12.0054 42.5389C9.65513 43.1207 8.69334 43.7054 7.69078 45.1614L6.91016 46.2953L6.93138 50.9184C6.95358 55.7478 7.21435 58.6973 9.34104 78.1702C10.4874 88.668 10.8688 91.1048 11.645 92.8881C12.2327 94.2385 12.899 94.9745 14.1471 95.6519C16.0984 96.7111 22.7648 96.2328 52.8647 92.8732C71.0453 90.844 83.1563 89.2179 86.4993 88.357C89.7115 87.5299 91.6231 85.9291 92.3308 83.4731C92.841 81.7032 92.7149 78.0434 91.8255 68.8024C89.2107 41.636 88.0707 36.7467 84.0265 35.3569C82.5993 34.8663 81.4142 34.8824 75.7817 35.4676C69.6049 36.1095 69.8951 36.1192 70.3226 35.2851C70.5112 34.9172 70.9076 33.812 71.2033 32.8295C71.681 31.2431 71.728 30.6713 71.6231 27.7198C71.4899 23.9771 71.0253 22.2938 69.3861 19.6153L68.4916 18.1532L69.4867 15.922C70.0341 14.6947 70.4801 13.5788 70.4782 13.4421C70.4722 13.0223 68.3066 9.4324 68.0594 9.4324C67.9315 9.4324 67.5747 9.84312 67.266 10.3448ZM51.7106 13.5735C46.0584 15.0672 41.7647 19.6501 40.6594 25.3698C39.7152 30.2552 41.3531 35.5189 44.9444 39.1412C50.6941 44.9408 60.449 44.8734 66.2779 38.9943C70.2338 35.0041 71.6216 29.1537 69.9055 23.7026C69.2617 21.6575 68.1103 19.4907 67.8369 19.81C67.7397 19.9239 67.1299 21.276 66.482 22.815C65.834 24.354 63.9435 28.3505 62.2807 31.6961C59.5979 37.0939 59.1876 37.7874 58.6386 37.8519C58.1732 37.9064 57.3427 37.4054 55.2891 35.8311C51.4458 32.8848 47.1188 29.1916 46.7946 28.5807C46.4959 28.0176 46.4993 22.5741 46.7992 21.1132C46.8952 20.6455 47.134 20.2319 47.3299 20.1939C47.7458 20.1132 52.6317 24.0681 55.3414 26.6786C56.372 27.6716 57.251 28.4403 57.2944 28.3867C57.3381 28.3335 58.1655 26.8115 59.1333 25.0048C60.1009 23.1982 61.6515 20.4151 62.5788 18.8202C64.4865 15.5397 64.5135 15.831 62.1892 14.6285C59.2679 13.117 55.0461 12.6919 51.7106 13.5735ZM84.2358 22.6799C83.5175 23.553 84.5482 24.919 85.6118 24.5029C86.2183 24.2656 86.371 23.1306 85.8651 22.6203C85.469 22.2208 84.5871 22.2529 84.2358 22.6799ZM84.7439 23.1354C84.5224 23.4048 84.5424 23.5493 84.8351 23.7943C85.3983 24.2659 85.9175 23.6882 85.3998 23.1661C85.0799 22.8432 84.9878 22.8391 84.7439 23.1354ZM12.9812 26.3837C12.7147 26.6526 12.8003 27.8072 13.1098 28.1193C13.7865 28.8019 14.9914 28.2877 14.9914 27.3164C14.9914 27.0354 14.8611 26.674 14.7019 26.5134C14.3924 26.2013 13.2478 26.1149 12.9812 26.3837ZM13.4248 26.9492C13.2473 27.239 13.7027 27.9247 14.0728 27.9247C14.3931 27.9247 14.2081 26.8881 13.8677 26.7752C13.7141 26.7241 13.5146 26.8025 13.4248 26.9492ZM36.9823 44.35C36.274 44.6826 35.366 45.1904 34.9649 45.4787C34.2716 45.9766 34.2018 45.9826 33.5619 45.6016C32.7139 45.0962 32.2078 45.1082 31.1857 45.6576C30.3829 46.089 30.3665 46.0875 29.8097 45.5257C29.0639 44.7733 28.6106 44.8067 26.7743 45.7478C25.3014 46.5029 25.2126 46.5192 24.8119 46.1092C24.2897 45.5748 23.552 45.7196 21.7804 46.7051C20.4883 47.4236 20.4879 47.4238 20.1383 46.9204C19.4653 45.9515 17.5571 46.4739 16.2393 47.9878C15.2775 49.0928 15.4085 49.3864 16.4926 48.5553C17.5024 47.7808 18.7216 47.1469 19.2009 47.1469C19.4563 47.1469 19.5748 47.3805 19.5748 47.8844C19.5748 48.938 20.132 49.0239 21.2374 48.1409C22.051 47.491 23.6176 46.6603 24.0298 46.6603C24.1005 46.6603 24.1582 46.9374 24.1582 47.2761C24.1582 48.1511 24.7297 48.2604 25.6541 47.562C26.8011 46.6958 27.9052 46.1737 28.5898 46.1737C29.0557 46.1737 29.2204 46.3328 29.3447 46.9036C29.5304 47.7572 30.1424 47.871 30.772 47.1691C31.0012 46.9138 31.5227 46.5652 31.9309 46.3948C32.6218 46.106 32.7084 46.1296 33.1889 46.7374C33.4726 47.0966 33.8094 47.3883 33.9372 47.3859C34.3531 47.3778 39.1181 44.0685 38.9531 43.902C38.6885 43.6351 38.3322 43.7161 36.9823 44.35ZM84.2247 45.1072C70.2936 46.5433 16.1397 52.8345 9.83315 53.7494L7.93177 54.0253L8.09074 55.9999C8.68345 63.3571 10.9583 86.3915 11.2784 88.2784C11.9765 92.3915 13.0888 94.4689 14.9432 95.1225C16.4279 95.6459 19.7277 95.4378 34.6517 93.8803C66.9492 90.5096 84.1463 88.2976 87.7173 87.0547C89.3183 86.4973 90.5812 85.4228 91.1524 84.1315C92.0773 82.0402 91.8165 76.5786 89.9909 59.7995C88.7495 48.3905 88.2017 44.6962 87.7581 44.7427C87.6058 44.7585 86.0159 44.9225 84.2247 45.1072ZM79.6414 48.766C74.157 49.5127 73.7546 49.9553 74.7099 54.1908C75.2809 56.723 75.4167 56.7936 79.0221 56.433C85.4176 55.793 86.2615 55.4239 86.2294 53.28C86.2069 51.79 85.7431 49.6597 85.2775 48.911C84.9849 48.4402 84.7439 48.3677 83.5558 48.3922C82.7959 48.4081 81.0345 48.5764 79.6414 48.766ZM78.4352 49.7193C76.6441 50.0312 75.1373 50.2918 75.0869 50.2984C74.9759 50.3125 75.2056 52.4875 75.3313 52.6116C75.38 52.6596 75.9406 52.6394 76.5775 52.5666C77.6145 52.4479 77.7822 52.3411 78.1865 51.5418C78.7823 50.3631 79.6249 49.978 80.868 50.3157C81.3881 50.457 81.9767 50.8232 82.1757 51.1296C82.5163 51.6542 82.6157 51.6727 83.867 51.4437C85.2975 51.1824 85.2729 51.2369 84.6809 49.641C84.5007 49.1548 84.322 49.0966 83.0849 49.1227C82.3188 49.1387 80.2263 49.4071 78.4352 49.7193ZM79.2966 51.4223C78.4087 52.3182 79.2252 53.8248 80.517 53.674C80.9522 53.6231 81.3239 53.3603 81.5574 52.9389C81.8978 52.3245 81.8841 52.2433 81.3423 51.6615C80.6854 50.9563 79.8551 50.8593 79.2966 51.4223ZM83.501 52.2279C82.8835 52.3379 82.6372 52.5172 82.5836 52.8956C82.3598 54.4784 79.9742 55.0478 78.7481 53.811C78.1981 53.2562 77.9687 53.1898 76.9444 53.289C76.2991 53.3516 75.7122 53.4623 75.6403 53.5348C75.3419 53.8358 75.8608 55.4651 76.308 55.632C76.8317 55.8274 82.8862 55.2772 84.2957 54.9061C85.3383 54.6317 85.7464 53.9083 85.5153 52.7433C85.3609 51.9651 85.2025 51.9245 83.501 52.2279ZM33.325 53.511C29.1266 53.9044 13.6709 55.6707 13.2422 55.8062C13.0099 55.8794 12.7303 56.1235 12.6213 56.3488C12.3277 56.9539 13.3911 69.3165 14.3912 76.9239C14.8684 80.5535 15.3144 83.7149 15.3824 83.949C15.5916 84.668 16.4721 84.6013 37.1745 82.2988C38.9601 82.1003 40.5153 81.8426 40.6309 81.726C41.1532 81.1993 38.0003 54.9268 37.2768 53.7774C36.8971 53.1742 36.9092 53.1749 33.325 53.511ZM36.0991 53.8479C35.9664 53.8993 30.8101 54.5035 24.6406 55.1911C18.4712 55.8785 13.3756 56.4875 13.3173 56.5444C13.2589 56.6014 13.3404 58.0413 13.4987 59.7446C13.6569 61.4475 14.0052 65.3047 14.2728 68.3157C14.5403 71.3268 14.9743 75.0671 15.2372 76.6278C15.4999 78.1884 15.7151 79.9065 15.7151 80.4457C15.7151 81.681 15.9749 81.8472 16.6959 81.073C17.4539 80.2591 20.4927 78.3089 22.7865 77.164C23.8062 76.655 24.6406 76.1343 24.6406 76.0068C24.6406 75.8796 24.7902 75.6024 24.9728 75.3912C25.1557 75.1798 25.3576 74.4228 25.422 73.7089C25.5289 72.5213 25.4898 72.3884 24.9622 72.1461C24.5188 71.9424 24.0894 71.9753 23.1047 72.2882C22.4003 72.5123 21.6926 72.6955 21.5319 72.6955C21.3712 72.6955 20.8379 71.8468 20.347 70.8098C19.5015 69.024 19.4542 68.7948 19.4542 66.4908C19.4542 64.3783 19.5369 63.8798 20.0816 62.7082C21.2827 60.1253 23.1231 58.6759 25.9358 58.0975C30.6943 57.1191 34.7152 60.44 35.5096 66.0042C35.7059 67.3802 35.4878 70.1718 35.1395 70.7402C35.0529 70.8818 34.0947 70.9922 32.9552 70.9922C30.98 70.9922 30.9163 71.0103 30.6005 71.6614C30.3484 72.1809 30.3335 72.5782 30.5339 73.4369C30.9592 75.2593 31.4545 75.665 34.192 76.4314C35.531 76.8064 37.3494 77.4672 38.2326 77.8998C39.515 78.5279 39.8382 78.6099 39.8377 78.3067C39.8375 78.0977 39.411 74.6968 38.8897 70.7489C38.3686 66.8011 37.7134 61.6001 37.4341 59.1912C36.7618 53.3944 36.8069 53.5752 36.0991 53.8479ZM56.418 54.9349C46.9683 55.939 44.3044 56.2899 43.2109 56.6746C42.4109 56.9556 42.1012 57.7068 42.3586 58.7409L42.519 59.3857L46.6667 59.2394C50.8439 59.0922 58.6147 58.2766 64.4805 57.3698C66.2238 57.1002 67.6809 56.8797 67.7183 56.8797C67.7559 56.8797 67.9571 56.7077 68.1657 56.4975C68.6774 55.9811 68.6448 54.8565 68.1035 54.3626C67.4987 53.8105 66.5724 53.856 56.418 54.9349ZM68.3035 60.9169C50.6649 62.6031 44.2134 63.4036 43.509 63.9932C43.316 64.1545 43.22 64.6457 43.2637 65.2445C43.3305 66.1546 43.4007 66.2439 44.1804 66.4086C44.6703 66.512 48.5688 66.2838 53.4678 65.8648C73.4723 64.154 78.256 63.4452 78.7611 62.1179C78.9297 61.6746 78.5281 60.4967 78.1185 60.2341C77.7525 59.9993 78.2982 59.9611 68.3035 60.9169ZM24.5268 61.9819C24.2846 62.252 23.655 62.6649 23.1279 62.8994L22.1695 63.3257L22.2923 65.6382C22.4674 68.9394 23.1342 70.3139 25.2073 71.648L26.1358 72.2453L25.9674 75.737L28.0948 76.8195L29.0188 76.2956C30.1639 75.6465 30.2821 75.2851 29.9514 73.4451C29.7186 72.1502 29.7424 71.8753 30.1598 71.0502C30.4191 70.5375 30.7054 69.7187 30.7961 69.2304C30.9404 68.4556 31.0579 68.3335 31.721 68.2685C32.3034 68.2113 32.499 68.0632 32.5595 67.6332C32.6749 66.812 32.1702 66.319 31.3908 66.4918C30.84 66.6137 30.6989 66.531 30.4755 65.955C30.3303 65.5806 30.1793 65.0032 30.14 64.6718C30.0806 64.1722 29.8963 64.0399 29.0614 63.8968C27.789 63.6788 26.6561 63.1053 25.7086 62.1996C24.9687 61.4923 24.9665 61.4918 24.5268 61.9819ZM25.6234 63.5493C25.4345 63.7788 25.4232 63.944 25.5889 64.0472C25.9213 64.2545 26.8629 63.7296 26.6836 63.4372C26.4764 63.099 25.9479 63.1549 25.6234 63.5493ZM23.1129 63.855C22.7836 64.1868 22.9687 64.454 23.476 64.3788C24.1389 64.2803 24.3615 63.6927 23.736 63.6927C23.4818 63.6927 23.2012 63.7657 23.1129 63.855ZM26.372 65.2871C26.481 65.8156 26.9092 65.848 27.0071 65.3351C27.0578 65.0686 26.9396 64.9093 26.6911 64.9093C26.4593 64.9093 26.3264 65.0667 26.372 65.2871ZM23.3607 65.5514C23.1679 65.7458 23.3858 66.1259 23.69 66.1259C23.8149 66.1259 23.917 65.9616 23.917 65.7609C23.917 65.3847 23.6323 65.2774 23.3607 65.5514ZM24.6406 66.8298C24.6406 68.1337 25.024 68.5167 25.8709 68.0593C26.4528 67.7451 26.221 67.2673 25.5853 67.4707C25.1815 67.5999 25.1231 67.4933 25.1231 66.6288C25.1231 66.0845 25.0146 65.6392 24.8819 65.6392C24.7492 65.6392 24.6406 66.175 24.6406 66.8298ZM26.4581 68.7934C26.2135 69.0659 25.8673 69.289 25.6888 69.289C25.5103 69.289 25.3643 69.3985 25.3643 69.5323C25.3643 69.8525 25.9961 69.8423 26.6069 69.5126C27.2923 69.1428 27.4314 69.4065 26.9459 70.1543C26.405 70.9866 26.7143 71.2869 27.3272 70.5243C27.8867 69.8282 27.8567 68.4797 27.2792 68.3695C27.0723 68.3301 26.7024 68.5209 26.4581 68.7934ZM65.0469 69.0562C62.7914 69.2995 58.6564 69.728 55.8579 70.0085C49.5261 70.6433 44.4498 71.3957 44.0091 71.7645C43.7975 71.9417 43.7006 72.4093 43.7462 73.0339C43.8168 73.9997 43.8439 74.0272 44.9041 74.216C47.3576 74.6525 70.1417 72.2758 72.3253 71.3555C73.0379 71.055 73.1281 70.9117 73.1281 70.08C73.1281 69.5647 72.9978 69.0116 72.8386 68.851C72.4457 68.4547 70.0375 68.5182 65.0469 69.0562ZM30.4746 75.7752C30.3243 76.0582 29.8187 76.5175 29.3509 76.7959L28.5003 77.302L29.3135 79.0218L29.8582 78.5057C30.7057 77.7028 31.2448 76.3842 30.9751 75.7749L30.7477 75.2603L30.4746 75.7752ZM25.2693 76.0355C24.9091 76.399 25.1943 77.1302 26.0506 78.0383C27.1104 79.1617 27.4191 79.2473 27.6247 78.4743C27.9031 77.4261 27.7933 77.1176 27.0855 76.9609C26.7053 76.8767 26.1742 76.6008 25.9052 76.3477C25.636 76.0949 25.3499 75.9543 25.2693 76.0355ZM82.6944 77.4923C82.3424 77.5826 82.2763 77.767 82.3779 78.3748C82.5764 79.5656 83.0198 83.413 83.0828 84.4945C83.1409 85.4926 83.5324 85.8055 84.19 85.3783C84.4633 85.2006 84.4438 84.5371 84.0694 81.3231C83.8231 79.2094 83.5131 77.457 83.3804 77.429C83.2478 77.401 82.939 77.4295 82.6944 77.4923ZM84.7991 78.7176C84.884 79.4873 85.0601 81.2564 85.1902 82.6492C85.3204 84.0422 85.4596 85.2148 85.4997 85.2552C85.5397 85.2958 85.8132 85.2654 86.1075 85.1878C86.8667 84.9875 86.9876 84.1755 86.6614 81.4613C86.241 77.9621 86.0243 77.3186 85.2678 77.3186C84.6524 77.3186 84.6467 77.3353 84.7991 78.7176ZM81.027 77.7052C80.9488 77.784 80.937 78.1947 81.0009 78.6176C81.0649 79.0408 81.2487 80.7554 81.4098 82.4283C81.6906 85.3435 81.7266 85.4732 82.2744 85.552C82.8099 85.6291 82.8369 85.5756 82.705 84.7004C82.6276 84.1867 82.4413 82.6168 82.2915 81.2117C82.1415 79.8065 81.9702 78.4106 81.9111 78.1093C81.8098 77.5957 81.3459 77.3835 81.027 77.7052ZM78.1194 77.9809C77.7467 78.0373 77.388 78.2249 77.3222 78.3977C77.2565 78.5704 77.3639 79.6848 77.5607 80.8742C77.7576 82.0635 77.9925 83.7312 78.0828 84.5804L78.2465 86.124L79.2455 85.9798C79.795 85.9002 80.4886 85.8338 80.7872 85.8323C81.1428 85.8304 81.3283 85.6834 81.3249 85.4063C81.3213 85.0931 80.4625 78.2527 80.3783 77.866C80.3711 77.8327 80.2022 77.8052 80.0032 77.8052C79.5574 77.8052 79.5574 77.7879 80.016 81.3141C80.2218 82.8984 80.3537 84.4269 80.3086 84.7106C80.2637 84.9943 80.0317 83.6935 79.7928 81.82C79.3138 78.0595 79.259 77.7889 78.9854 77.8417C78.882 77.8616 78.4921 77.9244 78.1194 77.9809ZM74.699 78.5305C74.6184 78.6619 74.6616 79.4009 74.7948 80.1729C74.9279 80.945 75.1021 82.3978 75.1817 83.4015C75.4099 86.2766 75.4282 86.3214 76.3751 86.3214C77.4167 86.3214 77.5349 86.1165 77.2457 84.8143C77.1171 84.2354 76.8913 82.7229 76.7442 81.4528C76.3852 78.3575 76.3604 78.2918 75.5385 78.2918C75.1571 78.2918 74.7793 78.3994 74.699 78.5305ZM72.1955 78.7303C71.3845 78.8135 71.3835 78.815 71.5533 79.8301C71.6469 80.3892 71.9128 82.1331 72.1441 83.7054C72.3755 85.2778 72.6295 86.6294 72.7086 86.7092C72.7877 86.789 73.1949 86.7783 73.6135 86.6856C74.2378 86.5474 74.3528 86.4228 74.253 85.9934C74.1861 85.7053 73.9418 83.9916 73.71 82.1849C73.4781 80.3783 73.2253 78.8432 73.1479 78.7736C73.0707 78.704 72.642 78.6846 72.1955 78.7303ZM68.7867 79.6732C68.7872 80.051 68.9927 81.455 69.2433 82.7932C69.4942 84.1315 69.7702 85.6372 69.8565 86.1389C69.9537 86.7024 70.1482 87.0513 70.3648 87.0513C70.8111 87.0513 70.7959 86.7299 70.1535 82.5531C69.7239 79.7586 69.5548 79.1354 69.2081 79.068C68.8865 79.0055 68.7862 79.1495 68.7867 79.6732ZM70.0782 79.3836C70.1537 79.5824 70.3853 80.9786 70.5928 82.4859C71.2465 87.2399 71.2439 87.2307 71.8793 86.8348C72.1096 86.691 72.0655 85.952 71.6805 83.5052C70.9609 78.931 70.9862 79.0218 70.4297 79.0218C70.0958 79.0218 69.9841 79.1366 70.0782 79.3836ZM67.5928 79.8126C67.6001 80.1138 67.7901 81.893 68.015 83.7665C68.3995 86.9686 68.4567 87.1776 68.9669 87.2509C69.6652 87.3509 69.6623 87.1545 68.9092 83.3743C68.1011 79.3179 68.0871 79.2651 67.8164 79.2651C67.6862 79.2651 67.5858 79.5113 67.5928 79.8126ZM65.3366 79.6909C65.2811 79.7914 65.3884 81.1326 65.5752 82.6716C65.7619 84.2106 65.9703 85.9352 66.0383 86.5039C66.1604 87.5243 66.1746 87.538 67.112 87.538C67.6348 87.538 68.0642 87.456 68.0666 87.3555C68.0717 87.1496 67.1193 80.9017 66.9538 80.0559C66.8723 79.6376 66.6805 79.5084 66.1421 79.5084C65.7544 79.5084 65.3918 79.5904 65.3366 79.6909ZM62.6608 79.952C62.5933 80.0622 62.6859 81.0204 62.8669 82.081C63.0475 83.1419 63.2719 84.8585 63.3655 85.8956L63.5356 87.7813H64.3113C64.7381 87.7813 65.1397 87.7282 65.2039 87.6635C65.2681 87.5988 65.0751 85.9836 64.775 84.0746C64.4749 82.1655 64.2233 80.4116 64.2161 80.1776C64.2064 79.8717 64.0028 79.7517 63.4931 79.7517C63.1028 79.7517 62.7284 79.8418 62.6608 79.952ZM61.39 80.7141C61.4738 81.1367 61.6742 82.9546 61.8354 84.7537C62.1188 87.9188 62.1461 88.0246 62.683 88.0246C63.3431 88.0246 63.343 88.3052 62.6828 83.7699C62.2242 80.6211 62.0894 80.1111 61.6947 80.0345C61.3003 79.9578 61.2586 80.0508 61.39 80.7141ZM57.7585 80.4309C57.0604 80.5031 56.9958 80.5761 57.1082 81.1657C57.1769 81.5256 57.4194 83.2981 57.6469 85.1048L58.0608 88.3896L58.8574 88.3519C59.2954 88.331 59.6976 88.2699 59.7511 88.2159C59.8047 88.1618 59.7456 87.4672 59.6201 86.672C59.4944 85.8771 59.2759 84.1877 59.1348 82.9181C58.9934 81.6487 58.8004 80.5515 58.7056 80.4802C58.6111 80.409 58.1848 80.3866 57.7585 80.4309ZM59.3779 80.3527C59.3779 80.4155 59.5343 81.5927 59.7253 82.9684C59.9164 84.3442 60.1414 86.0992 60.2251 86.8688C60.3764 88.258 60.5506 88.4524 61.3618 88.1382C61.6455 88.0285 61.6491 87.6285 61.3852 85.5226C61.2137 84.1553 61.0099 82.4071 60.9322 81.6375C60.7954 80.2853 60.7669 80.2384 60.0843 80.2384C59.6959 80.2384 59.3779 80.2897 59.3779 80.3527ZM54.0759 81.0292C54.0786 81.1966 54.2957 82.6473 54.5581 84.2532C54.8208 85.8591 55.0358 87.5348 55.0358 87.9772V88.7813L56.1816 88.7071C56.812 88.6662 57.3135 88.5234 57.2966 88.3896C57.2795 88.2558 57.0146 86.4764 56.7075 84.4357L56.1493 80.725H55.1101C54.4368 80.725 54.0725 80.8321 54.0759 81.0292ZM52.6235 81.2688C52.6235 81.4343 52.7885 82.7755 52.9901 84.2495C53.1916 85.7235 53.4154 87.3951 53.4873 87.9638C53.6007 88.8616 53.6955 88.9979 54.2062 88.9979C54.946 88.9979 54.9463 89.0098 54.1505 84.5656C53.5976 81.4788 53.4436 80.9683 53.0649 80.9683C52.822 80.9683 52.6235 81.1036 52.6235 81.2688ZM51.1761 81.4122C51.1761 81.5224 51.33 82.6993 51.5184 84.0278C51.7065 85.3561 51.9314 87.0725 52.0182 87.8421C52.1531 89.041 52.2469 89.2412 52.6727 89.2412C53.1091 89.2412 53.1537 89.1303 53.0396 88.3288C52.9679 87.827 52.7149 86.0201 52.4773 84.314C52.1058 81.6499 51.9835 81.2117 51.6105 81.2117C51.3715 81.2117 51.1761 81.3019 51.1761 81.4122ZM48.7638 81.9754C48.7638 82.4696 49.5965 87.775 49.8565 88.9371C49.9494 89.3517 50.1501 89.4845 50.684 89.4845C51.0716 89.4845 51.4614 89.366 51.5502 89.221C51.639 89.0762 51.5285 87.5158 51.3049 85.7537C50.7156 81.1136 50.841 81.455 49.7241 81.455C48.9037 81.455 48.7638 81.5309 48.7638 81.9754ZM45.6569 81.9421C44.3034 82.2645 44.3174 82.1716 44.9226 86.8778C45.0787 88.091 45.3503 89.1699 45.5506 89.3719C45.7756 89.5989 46.3893 89.7279 47.2447 89.7279H48.586L48.4379 88.6937C48.3566 88.1251 48.1626 86.3185 48.0075 84.679L47.725 81.6983L47.0985 81.7231C46.7541 81.737 46.1052 81.8355 45.6569 81.9421ZM34.829 86.0785C34.0337 86.6141 33.2499 87.2141 33.0874 87.4119C32.8304 87.7241 32.7361 87.7029 32.374 87.2516C31.7825 86.5148 30.579 86.6085 29.343 87.4874C28.346 88.1962 28.3448 88.1964 27.7685 87.7256C27.0879 87.1698 26.0803 87.2827 25.0725 88.028C24.2892 88.6071 24.0701 88.6259 23.6757 88.1463C23.2307 87.6054 22.4898 87.701 21.4405 88.4344C20.519 89.0787 19.6995 90.2593 19.9786 90.5405C20.0573 90.6201 20.6111 90.2507 21.2091 89.7198C22.5588 88.5215 23.1344 88.4665 23.2384 89.5266C23.2799 89.9512 23.4371 90.3396 23.5882 90.3894C23.7389 90.4391 24.3697 90.0371 24.9897 89.4957C26.3199 88.3344 26.7307 88.2818 27.4498 89.1804C27.8495 89.6797 28.0722 89.7877 28.3276 89.6062C28.5155 89.4724 29.1362 89.0071 29.7067 88.5721C30.277 88.137 30.889 87.7813 31.0663 87.7813C31.2436 87.7813 31.5473 88.1645 31.7415 88.6329C32.1458 89.6094 32.5716 89.7052 33.2273 88.9675C33.4801 88.683 34.4737 87.8 35.4357 87.0054C36.3978 86.2104 37.1847 85.4576 37.1847 85.3325C37.1847 84.8405 36.2074 85.15 34.829 86.0785Z" fill="#15803D"/>
</g>
</svg>
