<svg width="101" height="100" viewBox="0 0 101 100" fill="none" xmlns="http://www.w3.org/2000/svg">
<g id="Traced Image">
<path id="Vector" fill-rule="evenodd" clip-rule="evenodd" d="M62.375 2.77685C50.8025 3.5046 39.9993 4.64735 28.2868 6.38235C20.9338 7.4716 11.8995 8.9581 11.3485 9.1696C10.9868 9.30835 10.9597 9.5836 11.1345 11.3516C11.2445 12.4644 11.3435 13.8126 11.3547 14.3478L11.375 15.3209L8.25 16.0316C4.915 16.7901 3 17.4146 3 17.7434C3 17.9774 5.23875 27.8443 6.745 34.2498C10.7077 51.1008 20.9262 90.3933 22.254 93.8856C22.428 94.3426 22.6728 94.4998 23.2115 94.4998C25.8343 94.4998 48.449 89.8533 62.125 86.5043C65.5625 85.6626 71.492 84.4156 75.3018 83.7331C79.1115 83.0506 82.4023 82.4258 82.6143 82.3443C83.138 82.1433 83.1105 80.9466 82.5013 77.3816L82.0023 74.4636L82.6025 73.6691C84.9123 70.6131 86.2198 65.1126 84.9408 63.8334C84.4353 63.3281 83.0942 63.3371 82.5277 63.8498C82.2162 64.1316 81.9655 64.8911 81.7865 66.0946C81.6377 67.0949 81.4158 68.1841 81.2933 68.5148C81.086 69.0758 81.0613 69.0828 80.9313 68.6208C80.8545 68.3481 80.4898 66.4784 80.121 64.4659L79.4505 60.8069L83.3932 54.9888L87.3357 49.1711L86.6052 48.5858C84.834 47.1663 82.5175 45.7096 82.2725 45.8609C82.1255 45.9519 81.083 47.3156 79.956 48.8913C78.829 50.4673 77.8315 51.6709 77.7393 51.5659C77.6473 51.4609 77.2663 49.7999 76.8928 47.8749C76.5193 45.9499 76.1583 44.1414 76.0908 43.8561C75.9733 43.3604 76.1475 43.3184 80.0465 42.9004C82.2898 42.6599 84.9545 42.3431 85.9682 42.1966L87.8118 41.9299L89.0275 39.4024C89.696 38.0124 90.3092 36.5321 90.3897 36.1131C90.5435 35.3154 90.183 33.6966 88.4577 27.4373C87.5105 24.0003 87.4008 23.7498 86.8443 23.7498C86.3933 23.7498 85.9572 24.1573 85.0612 25.4158C83.4922 27.6193 82.7548 28.4998 82.4778 28.4998C82.0413 28.4998 82.2575 27.9059 83.4085 25.9429C84.0493 24.8499 84.4683 23.8788 84.346 23.7701C84.2245 23.6621 83.6187 23.4376 83 23.2713C81.8935 22.9743 79.332 21.3346 79.5827 21.0838C79.6532 21.0133 80.479 21.3311 81.418 21.7903C82.9882 22.5581 83.3152 22.6248 85.5 22.6248C87.594 22.6248 88.0433 22.5421 89.2975 21.9263C91.1 21.0411 93.0507 18.9411 93.7002 17.1866C95.6237 11.9916 93.4505 6.4896 88.5602 4.1731C86.998 3.4331 86.6835 3.37485 84.25 3.37485C81.9002 3.37485 81.48 3.4461 80.2425 4.05385C78.2693 5.02285 76.9583 6.2396 76.049 7.9461C74.6645 10.5433 74.5522 14.1736 75.7637 17.1589L76.3305 18.5553L75.7718 20.3401C74.9278 23.0351 73.9853 25.4796 73.7288 25.6378C73.0725 26.0436 73.0828 25.3048 73.76 23.3863C74.167 22.2333 74.5 21.2086 74.5 21.1094C74.5 21.0099 73.825 20.9991 73 21.0854C72.175 21.1716 71.5 21.1713 71.5 21.0848C71.5 20.5963 67.949 3.53035 67.75 3.06235C67.481 2.42985 67.7042 2.4416 62.375 2.77685ZM58.5 3.7616C45.3958 4.83385 30.829 6.5886 18.125 8.62585C12.3443 9.55285 11.75 9.7076 11.75 10.2848C11.75 11.0098 14.0872 26.3188 15.3897 34.1248C16.7577 42.3246 18.5788 52.4371 21.3773 67.3748C22.5363 73.5623 23.889 80.9311 24.383 83.7498C24.8772 86.5686 25.3588 88.9503 25.4533 89.0426C25.871 89.4508 63.0243 84.7423 77.3125 82.4706C81.93 81.7363 82.25 81.6511 82.2505 81.1551C82.251 80.6268 81.5513 76.4038 81.3658 75.8156C81.305 75.6228 80.6283 75.9918 79.5715 76.7941C76.4395 79.1718 73.2738 80.2423 69.375 80.2423C64.8335 80.2423 61.7383 78.9868 58.6133 75.8768C55.312 72.5916 54 69.4419 54 64.8026C54 58.4939 57.4465 53.7856 63.7477 51.4859C66.3892 50.5219 70.118 50.0399 71.1435 50.5301C71.9098 50.8961 72.1567 51.5916 71.8932 52.6409C71.7317 53.2849 71.5177 53.3634 67.5827 54.2236C63.058 55.2131 59.995 57.3711 58.432 60.6711C57.6682 62.2836 57.625 62.5289 57.625 65.2499C57.625 68.0371 57.6525 68.1826 58.5283 70.0161C60.2878 73.7006 63.5027 75.9721 67.764 76.5413C70.3555 76.8873 73.0082 76.4334 75.4682 75.2224C77.2575 74.3419 79.8943 71.8833 80.1523 70.8551C80.2968 70.2798 79.2112 63.6499 78.7755 62.4461C78.661 62.1296 78.0325 62.8773 76.3727 65.3043C72.1167 71.5281 71.5365 72.2498 70.7883 72.2498C70.0303 72.2498 68.4297 71.0143 63.5457 66.6586C61.8705 65.1646 60.5 63.7583 60.5 63.5336C60.5 62.9938 63.9102 58.9999 64.371 58.9999C64.568 58.9999 65.8507 59.9561 67.2215 61.1249C68.5922 62.2936 69.7672 63.2499 69.8327 63.2499C69.8982 63.2499 71.5337 60.9491 73.4675 58.1371L76.983 53.0244L76.0383 48.3246L75.0935 43.6249L72.8593 43.7481C71.6305 43.8156 69.6733 43.8719 68.51 43.8731L66.3948 43.8749L65.692 41.9999C64.6533 39.2284 63.3658 34.7113 62.6558 31.3473L62.0295 28.3804L62.528 27.2526C63.136 25.8778 65.1102 22.6771 65.6022 22.2688C65.799 22.1053 66.9815 21.8428 68.23 21.6853C69.992 21.4628 70.4992 21.3121 70.4965 21.0118C70.4945 20.7991 69.7285 16.7436 68.7943 11.9999L67.0955 3.37485L65.6103 3.3381C64.7935 3.3181 61.5938 3.5086 58.5 3.7616ZM80.2503 7.31235C80.2508 8.1086 81.8035 10.7714 82.959 11.9579C85.7515 14.8249 90.1003 15.4829 90.9873 13.1729C91.3165 12.3159 90.8767 12.1459 90.167 12.8556C89.5315 13.4911 89.094 13.6024 87.6302 13.5016C85.6137 13.3624 82.4053 10.7383 81.2698 8.29985C80.6943 7.0636 80.2498 6.6331 80.2503 7.31235ZM42.625 8.89385C38.0672 9.29485 33.423 9.92085 32.281 10.2881L31.437 10.5594L31.6057 12.2171C31.8497 14.6121 33.7147 26.5481 33.8695 26.7026C34.0695 26.9026 50.0925 24.9886 50.3582 24.7328C50.5022 24.5943 50.377 23.1891 50.0315 21.0666C49.3325 16.7688 47.8303 9.08185 47.6245 8.74885C47.4473 8.46235 47.5683 8.45885 42.625 8.89385ZM40.125 9.7386C34.4557 10.4021 32.3205 10.7061 31.9737 10.9001C31.8907 10.9464 32.0318 12.1974 32.2873 13.6796C32.543 15.1621 33.0417 18.5123 33.3957 21.1248C33.7497 23.7373 34.128 25.9666 34.2363 26.0788C34.3445 26.1911 35.3515 26.1571 36.474 26.0033C37.5965 25.8496 41.098 25.4683 44.255 25.1561C47.412 24.8436 50.0525 24.5306 50.123 24.4604C50.1933 24.3899 49.9063 22.7106 49.485 20.7286C49.0638 18.7466 48.411 15.3249 48.0342 13.1249C47.3732 9.26385 47.3283 9.12335 46.7373 9.0806C46.4005 9.05635 43.425 9.35235 40.125 9.7386ZM38.4603 11.1308C36.237 12.3383 36.224 16.4423 38.4388 17.8936L39.0327 18.2829L37.9365 19.2478C36.713 20.3251 36.2477 21.4738 36.2537 23.4038C36.26 25.3963 36.6575 25.4881 36.8213 23.5348C36.988 21.5471 37.4027 20.5866 38.4897 19.6719C39.6232 18.7181 40.197 18.6131 40.862 19.2376C41.3792 19.7233 41.42 19.9361 41.3047 21.5456C41.1867 23.1953 41.2195 23.3503 41.7765 23.7786C42.6103 24.4196 42.8915 24.3651 43.2533 23.4921C43.5378 22.8048 43.492 22.5866 42.7588 21.1421C41.8068 19.2663 41.8767 18.4999 43.0005 18.4999C44.705 18.4999 45.8847 19.3958 47.5542 21.9581C48.8215 23.9033 49.1015 23.6043 47.9813 21.5023C47.003 19.6671 45.625 18.3701 44.2637 18.0036L43.2495 17.7303L43.7637 17.0349C44.9002 15.4976 44.165 12.3561 42.4157 11.2751C41.411 10.6541 39.4688 10.5831 38.4603 11.1308ZM38.6418 11.7364C37.6778 12.3721 37.2695 13.1514 37.2598 14.3749C37.2353 17.4739 41.1535 19.0471 43.109 16.7233C44.3438 15.2558 43.7635 12.5369 42.0235 11.6371C41.0037 11.1096 39.5268 11.1531 38.6418 11.7364ZM8.125 16.7289C3.31 17.8289 3.7435 17.6401 3.90525 18.5653C4.25775 20.5823 6.7545 31.2084 8.90575 39.8489C12.773 55.3801 22.3648 92.5243 22.7353 93.4028C22.9423 93.8938 23.0595 93.9151 24.4165 93.7056C28.3608 93.0966 49.4915 88.7493 56.4543 87.1143C59.5188 86.3948 60.0242 86.0791 57.4692 86.4806C52.2585 87.2991 28.7615 89.7461 26.0895 89.7486L24.8037 89.7498L24.4062 88.0623C23.9708 86.2141 22.985 80.8793 21.508 72.3748C20.9825 69.3498 19.815 63.0499 18.9132 58.3749C16.8103 47.4711 15.1002 37.6608 13.504 27.3424C11.786 16.2394 11.7412 15.9966 11.4117 16.0216C11.254 16.0336 9.775 16.3519 8.125 16.7289ZM65.5 23.8311C65.5 25.7291 67.663 34.4176 68.7845 37.0244C69.4508 38.5734 69.8705 38.1853 69.327 36.5233C68.3625 33.5753 66.9537 28.4536 66.4597 26.0991C66.1597 24.6696 65.821 23.4998 65.7073 23.4998C65.5933 23.4998 65.5 23.6488 65.5 23.8311ZM70.2903 25.1551C68.3825 27.4693 68.8158 30.4448 71.3903 32.7111C73.0435 34.1663 74.8677 34.8049 77.75 34.9376C80.7908 35.0774 82.555 34.4938 84.2842 32.7764C85.9822 31.0899 86.4005 29.2638 85.5218 27.3748L85.0565 26.3748L85.1855 28.2624C85.3335 30.4259 85.0345 31.2538 83.6965 32.3846C82.149 33.6926 80.859 34.0981 78.25 34.0971C75.387 34.0961 73.4882 33.4603 71.8565 31.9561C69.8012 30.0616 69.4308 27.9238 70.7523 25.5826C71.6173 24.0498 71.3813 23.8313 70.2903 25.1551ZM48.125 29.1533C40.974 29.9783 25.3155 31.9169 22.9375 32.2716C21.494 32.4869 21 32.6579 21 32.9419C21 33.2631 21.2895 33.2988 22.838 33.1678C25.3497 32.9556 53.9862 29.5099 54.6875 29.3354C54.997 29.2586 55.25 29.0391 55.25 28.8478C55.25 28.3851 54.509 28.4168 48.125 29.1533ZM36.75 33.3871C28.4725 34.2956 22.1365 35.1361 21.7463 35.3771C21.1833 35.7251 21.5715 35.9999 22.6262 35.9999C23.7262 35.9999 42.771 33.9126 44.9975 33.5478C45.769 33.4216 46.1462 33.2288 46.2035 32.9318C46.3145 32.3553 46.0203 32.3696 36.75 33.3871ZM52.25 34.5356C44.115 35.3756 22.267 38.1496 22.046 38.3703C21.9867 38.4298 22.0025 38.6458 22.081 38.8503C22.1815 39.1118 22.4695 39.1883 23.0495 39.1073C23.5035 39.0438 29.2188 38.3704 35.75 37.6104C47.7627 36.2126 55.8343 35.1319 56.27 34.8626C56.401 34.7816 56.4435 34.6106 56.3643 34.4826C56.1988 34.2146 55.2385 34.2271 52.25 34.5356ZM86.5 36.0199C85.7437 36.1341 82.2075 36.5814 78.6415 37.0139C75.0755 37.4461 71.9255 37.9041 71.6415 38.0314C70.726 38.4411 77.1115 38.0486 82.375 37.3716C88.274 36.6129 89.0543 36.4621 89.1898 36.0559C89.3053 35.7089 88.6205 35.6996 86.5 36.0199ZM44.375 38.4229C35.9625 39.2646 22.9595 40.9711 22.6375 41.2754C21.8405 42.0286 23.3488 41.9601 34.1423 40.7534C46.5028 39.3711 47.125 39.2746 47.125 38.7404C47.125 38.3489 46.1912 38.2411 44.375 38.4229ZM45.125 41.1278C39.9 41.7246 33.4313 42.5034 30.75 42.8584C22.842 43.9054 22.6075 43.9574 23.1812 44.5311C23.5037 44.8536 28.6103 44.3376 43.5 42.4784C55.7345 40.9506 57.307 40.7061 57.438 40.3124C57.6055 39.8074 55.4175 39.9523 45.125 41.1278ZM45.25 43.9258C35.4447 45.0021 24.5487 46.3389 24.0562 46.5259C23.5665 46.7121 23.487 46.8369 23.7135 47.0634C23.94 47.2899 25.007 47.2581 28.3167 46.9263C36.7305 46.0833 47.8783 44.7199 48.0908 44.5084C48.2093 44.3901 48.2308 44.1711 48.1385 44.0216C47.9755 43.7581 47.0562 43.7276 45.25 43.9258ZM43.125 49.6719C42.7125 49.7254 39.2812 50.1644 35.5 50.6474C28.0322 51.6016 27.75 51.6529 27.75 52.0544C27.75 52.4391 31.203 52.1716 38.125 51.2509C45.351 50.2894 47 50.0056 47 49.7241C47 49.5066 44.6463 49.4749 43.125 49.6719ZM23.3 52.5499C22.9125 52.9374 22.9125 54.3124 23.3 54.6999C24.0522 55.4521 25.75 54.7816 25.75 53.7321C25.75 52.6379 24.038 51.8119 23.3 52.5499ZM31.77 53.2744C29.787 53.5369 28.107 53.8094 28.0365 53.8799C27.966 53.9506 28.0165 54.1164 28.1485 54.2484C28.5225 54.6224 38.865 53.4204 39.143 52.9706C39.3663 52.6094 35.6303 52.7634 31.77 53.2744ZM38.375 55.8876C28.3725 57.1891 28.117 57.2374 28.6418 57.7251C28.92 57.9841 33.48 57.5364 41.25 56.4869C47.4595 55.6484 48 55.5471 48 55.2229C48 54.8201 44.9742 55.0291 38.375 55.8876ZM24.4375 58.0199C23.7707 58.4081 23.8538 59.8923 24.568 60.3606C25.3108 60.8471 26.226 60.5956 26.5193 59.8244C26.8428 58.9731 26.816 58.8159 26.25 58.2499C25.702 57.7019 25.112 57.6271 24.4375 58.0199ZM35.75 58.4176C30.6655 58.9276 29 59.2354 29 59.6651C29 60.0699 29.337 60.0484 35.9935 59.2196C40.264 58.6879 41.5055 58.2251 38.4875 58.2899C37.463 58.3119 36.2312 58.3694 35.75 58.4176ZM45.625 60.4224C45.2125 60.4761 42.175 60.8534 38.875 61.2606C29.78 62.3834 28.852 62.5699 29.7143 63.1029C29.9788 63.2664 37.0565 62.4919 43.25 61.6216C48.4928 60.8849 49 60.7836 49 60.4729C49 60.2551 47.1243 60.2271 45.625 60.4224ZM25.3927 63.8926C24.542 64.7436 25.2412 66.4999 26.4307 66.4999C26.9222 66.4999 27.75 65.5589 27.75 64.9999C27.75 64.3636 26.8965 63.4999 26.2677 63.4999C26.0027 63.4999 25.609 63.6766 25.3927 63.8926ZM34.625 63.8949C30.485 64.3601 30 64.4641 30 64.8861C30 65.3364 29.7457 65.3436 35 64.7461C40.1797 64.1571 41 64.0171 41 63.7221C41 63.4161 38.2132 63.4916 34.625 63.8949ZM94.25 67.0126C90.5535 67.7451 87.5088 68.5333 87.3438 68.8003C87.2612 68.9341 87.3172 69.1671 87.4682 69.3181C87.78 69.6298 89.6842 69.2331 94.625 67.8276C99.2405 66.5146 99.0335 66.0646 94.25 67.0126ZM37.4548 71.9838C37.086 72.1013 36.5503 72.3613 36.2643 72.5616C35.914 72.8071 35.352 72.8881 34.5412 72.8103C33.0905 72.6708 31.7603 73.2693 30.0825 74.8158C28.407 76.3603 27.0508 78.9396 27.415 79.8891C27.6468 80.4926 27.9065 80.2978 28.2068 79.2958C28.6043 77.9691 30.2615 75.7331 31.466 74.8983C32.4487 74.2173 34.279 73.4501 34.4707 73.6388C34.5235 73.6906 34.2162 74.1321 33.788 74.6199C32.705 75.8531 32.1875 76.9418 32.1585 78.0476C32.093 80.5476 34.9082 80.4011 36.0387 77.8456C36.4122 77.0011 36.5215 76.3066 36.4593 75.1733L36.375 73.6421L37.5462 73.1566C38.6585 72.6954 38.75 72.6924 39.3698 73.0984C40.3435 73.7366 40.6085 74.6388 40.246 76.0838C40.0122 77.0156 40.0108 77.3593 40.2393 77.5838C40.4655 77.8061 40.6495 77.7353 41.0177 77.2846C41.283 76.9601 41.5 76.5481 41.5 76.3693C41.5 75.9688 42.9128 74.7498 43.3773 74.7498C43.5635 74.7498 43.9563 75.0873 44.25 75.4998C44.9125 76.4303 45.3147 76.4456 45.891 75.5623C46.1375 75.1843 46.956 74.2271 47.7095 73.4356C48.463 72.6439 49.001 71.9176 48.905 71.8214C48.5992 71.5159 46.9573 72.5806 46.0378 73.6808L45.15 74.7428L44.6213 74.2463C44.0043 73.6666 43.13 73.6218 42.25 74.1248C41.4082 74.6061 41.25 74.5868 41.25 74.0038C41.25 73.7308 40.9405 73.1646 40.5625 72.7451C39.8133 71.9141 38.6038 71.6178 37.4548 71.9838ZM34.445 75.4828C33.2505 76.8823 32.797 78.1538 33.3092 78.6663C33.6292 78.9863 33.7703 78.9503 34.4538 78.3756C35.2778 77.6818 35.596 76.6883 35.4567 75.2421L35.375 74.3928L34.445 75.4828ZM86.0485 81.2741C86.198 81.7286 88.862 82.8021 92.5768 83.9053C97.7433 85.4398 96.7797 84.5434 90.9515 82.3936C87.3398 81.0614 85.8675 80.7251 86.0485 81.2741ZM76 87.3218C76 88.1511 82.008 94.3251 82.417 93.9163C82.5775 93.7558 81.3573 92.2351 78.4218 88.9373C76.7993 87.1146 76 86.5816 76 87.3218ZM66.5665 90.3211C66.6415 91.0476 67.0228 92.9321 67.414 94.5086C68.0713 97.1578 68.1313 97.2896 68.206 96.2498C68.2908 95.0746 67.9023 91.8848 67.4528 90.0623C67.2875 89.3928 67.05 88.9998 66.8102 88.9998C66.5007 88.9998 66.4555 89.2453 66.5665 90.3211Z" fill="#15803D"/>
</g>
</svg>
